# xmcd
#
# Track frame offsets:
#	150
#	15828
#	29387
#	46843
#	63324
#	79332
#	95334
#	111898
#	129713
#	147935
#	162021
#	176358
#
# Disc length: 2548 seconds
#
# Revision: 0
# Processed by: cddbd v1.5.1PL2 Copyright (c) Steve Scherf et al.
# Submitted via: EasyCDDAExtractor 9.1.3.1
#
DISCID=9009f20c
DTITLE=Mindy Smith - Long Island Shores
DYEAR=2006
DGENRE=Country
TTITLE0=Out Loud
TTITLE1=Please Stay
TTITLE2=Edge Of Love
TTITLE3=What if the World Stops Turning
TTITLE4=You Just Forgot
TTITLE5=Tennessee
TTITLE6=You Know I Love You Baby
TTITLE7=Little Devil
TTITLE8=Out of Control
TTITLE9=I'm Not The Only One Asking
TTITLE10=Long Island Shores
TTITLE11=Peace of Mind
EXTD=
EXTT0=
EXTT1=
EXTT2=
EXTT3=
EXTT4=
EXTT5=
EXTT6=
EXTT7=
EXTT8=
EXTT9=
EXTT10=
EXTT11=
PLAYORDER=
